<svg width="30" height="30" viewBox="0 0 30 30" fill="none" xmlns="http://www.w3.org/2000/svg">
<path d="M15 3.75C21.2132 3.75 26.25 8.7868 26.25 15C26.25 21.2132 21.2132 26.25 15 26.25C12.863 26.25 10.8118 25.6523 9.03851 24.5423C8.31617 24.0901 7.64713 23.5571 7.04458 22.9545C6.44113 22.351 5.90751 21.6807 5.45501 20.9571C4.34675 19.1847 3.75 17.1353 3.75 15C3.75 14.6573 3.76535 14.3164 3.79588 13.9779C3.84236 13.4621 4.29809 13.0819 4.81376 13.1283C5.32944 13.1747 5.70979 13.6305 5.6633 14.1463C5.63783 14.4288 5.625 14.7135 5.625 15C5.625 16.7811 6.12159 18.4866 7.04479 19.963C7.42205 20.5662 7.8671 21.1252 8.37049 21.6287C8.8731 22.1314 9.43113 22.576 10.0333 22.9529C11.5106 23.8776 13.2174 24.375 15 24.375C20.1776 24.375 24.375 20.1776 24.375 15C24.375 9.82233 20.1776 5.625 15 5.625C12.0034 5.625 9.24941 7.04101 7.49719 9.37745L10.9427 9.37761C11.4605 9.37761 11.8802 9.79735 11.8802 10.3151C11.8802 10.7897 11.5275 11.182 11.07 11.2441L10.9427 11.2526H5.3125C4.83788 11.2526 4.44564 10.8999 4.38356 10.4423L4.375 10.3151V4.69011C4.375 4.17235 4.79474 3.75261 5.3125 3.75261C5.78713 3.75261 6.17936 4.10531 6.24144 4.5629L6.25 4.69011L6.24875 7.92935C8.35734 5.32004 11.5454 3.75 15 3.75ZM14.0625 8.75C14.5369 8.75 14.9294 9.10291 14.9914 9.56034L15 9.6875V15H17.8125C18.33 15 18.75 15.42 18.75 15.9375C18.75 16.4119 18.3971 16.8044 17.9396 16.8664L17.8125 16.875H14.0625C13.5881 16.875 13.1956 16.5221 13.1336 16.0646L13.125 15.9375V9.6875C13.125 9.17 13.545 8.75 14.0625 8.75Z" fill="#807F86"/>
</svg>
