<svg width="30" height="30" viewBox="0 0 30 30" fill="none" xmlns="http://www.w3.org/2000/svg">
<path d="M9.30664 2.70933C8.73226 3.09227 8.57705 3.86833 8.95996 4.44273L13.4961 11.2494L9.13086 17.7972C8.61675 17.617 8.07303 17.4994 7.5 17.4994C4.75339 17.4994 2.5 19.7528 2.5 22.4994C2.5 25.246 4.75339 27.4994 7.5 27.4994C10.2466 27.4994 12.5 25.246 12.5 22.4994C12.5 21.2269 12.0033 20.0721 11.2109 19.1864L15 13.5028L18.7891 19.1864C17.9967 20.0721 17.5 21.2269 17.5 22.4994C17.5 25.246 19.7534 27.4994 22.5 27.4994C25.2466 27.4994 27.5 25.246 27.5 22.4994C27.5 19.7528 25.2466 17.4994 22.5 17.4994C21.927 17.4994 21.3833 17.617 20.8691 17.7972L16.5039 11.2494L21.04 4.44273C21.4229 3.86833 21.2677 3.09227 20.6934 2.70933C20.0436 2.33421 19.2778 2.50558 18.96 3.05601L15 8.99595L11.04 3.05601C10.5739 2.41664 9.89788 2.36997 9.30664 2.70933ZM7.5 19.9994C8.89551 19.9994 10 21.1039 10 22.4994C10 23.8949 8.89551 24.9994 7.5 24.9994C6.10449 24.9994 5 23.8949 5 22.4994C5 21.1039 6.10449 19.9994 7.5 19.9994ZM22.5 19.9994C23.8955 19.9994 25 21.1039 25 22.4994C25 23.8949 23.8955 24.9994 22.5 24.9994C21.1045 24.9994 20 23.8949 20 22.4994C20 21.1039 21.1045 19.9994 22.5 19.9994Z" fill="#807F86"/>
</svg>
