<svg width="24" height="24" viewBox="0 0 24 24" fill="none" xmlns="http://www.w3.org/2000/svg">
<path fill-rule="evenodd" clip-rule="evenodd" d="M20.751 21.9397H13.498C13.084 21.9397 12.748 21.6037 12.748 21.1897C12.748 20.7757 13.084 20.4397 13.498 20.4397H20.751C21.165 20.4397 21.501 20.7757 21.501 21.1897C21.501 21.6037 21.165 21.9397 20.751 21.9397Z" fill="black"/>
<mask id="mask0_1_119" style="mask-type:luminance" maskUnits="userSpaceOnUse" x="2" y="3" width="18" height="19">
<path fill-rule="evenodd" clip-rule="evenodd" d="M2.00049 3.00015H19.1811V21.9397H2.00049V3.00015Z" fill="white"/>
</mask>
<g mask="url(#mask0_1_119)">
<path fill-rule="evenodd" clip-rule="evenodd" d="M13.1108 5.0168L3.69576 16.7918C3.52476 17.0058 3.46176 17.2818 3.52476 17.5468L4.20576 20.4318L7.24476 20.3938C7.53376 20.3908 7.80076 20.2618 7.97776 20.0418C11.1948 16.0168 17.3278 8.3428 17.5018 8.1178C17.6658 7.8518 17.7298 7.4758 17.6438 7.1138C17.5558 6.7428 17.3248 6.4278 16.9918 6.2268C16.9208 6.1778 15.2358 4.8698 15.1838 4.8288C14.5498 4.3208 13.6248 4.4088 13.1108 5.0168ZM3.61376 21.9398C3.26676 21.9398 2.96476 21.7018 2.88376 21.3628L2.06476 17.8918C1.89576 17.1728 2.06376 16.4308 2.52476 15.8548L11.9448 4.0728C11.9488 4.0688 11.9518 4.0638 11.9558 4.0598C12.9888 2.8248 14.8568 2.6428 16.1168 3.6538C16.1668 3.6928 17.8398 4.9928 17.8398 4.9928C18.4478 5.3548 18.9228 6.0018 19.1028 6.7678C19.2818 7.5258 19.1518 8.3078 18.7348 8.9688C18.7038 9.0178 18.6768 9.0598 9.14876 20.9798C8.68976 21.5518 8.00176 21.8848 7.26276 21.8938L3.62376 21.9398H3.61376Z" fill="black"/>
</g>
<path fill-rule="evenodd" clip-rule="evenodd" d="M16.2234 11.6848C16.0634 11.6848 15.9034 11.6338 15.7664 11.5298L10.3144 7.34179C9.98642 7.08979 9.92442 6.61979 10.1764 6.28979C10.4294 5.96179 10.8994 5.90079 11.2284 6.15279L16.6814 10.3398C17.0094 10.5918 17.0714 11.0628 16.8184 11.3918C16.6714 11.5838 16.4484 11.6848 16.2234 11.6848Z" fill="black"/>
</svg>
