<svg width="30" height="30" viewBox="0 0 30 30" fill="none" xmlns="http://www.w3.org/2000/svg">
<mask id="mask0_1_677" style="mask-type:luminance" maskUnits="userSpaceOnUse" x="2" y="1" width="27" height="28">
<path fill-rule="evenodd" clip-rule="evenodd" d="M2.5 1.25024H28.1248V28.1315H2.5V1.25024Z" fill="white"/>
</mask>
<g mask="url(#mask0_1_677)">
<path fill-rule="evenodd" clip-rule="evenodd" d="M17.146 19.1141C18.651 19.1141 19.876 20.3304 19.876 21.8254V25.6704C19.876 25.9916 20.1335 26.2491 20.4635 26.2566H22.846C24.7235 26.2566 26.2497 24.7491 26.2497 22.8966V11.9916C26.241 11.3541 25.9372 10.7541 25.416 10.3554L17.1747 3.78287C16.0685 2.90662 14.521 2.90662 13.411 3.78537L5.226 10.3529C4.68475 10.7641 4.381 11.3641 4.37475 12.0129V22.8966C4.37475 24.7491 5.901 26.2566 7.7785 26.2566H10.1835C10.5222 26.2566 10.7972 25.9879 10.7972 25.6579C10.7972 25.5854 10.806 25.5129 10.821 25.4441V21.8254C10.821 20.3391 12.0385 19.1241 13.5322 19.1141H17.146ZM22.846 28.1316H20.441C19.0635 28.0991 18.001 27.0179 18.001 25.6704V21.8254C18.001 21.3641 17.6172 20.9891 17.146 20.9891H13.5385C13.0772 20.9916 12.696 21.3679 12.696 21.8254V25.6579C12.696 25.7516 12.6835 25.8416 12.6572 25.9266C12.5222 27.1641 11.4647 28.1316 10.1835 28.1316H7.7785C4.86725 28.1316 2.49975 25.7829 2.49975 22.8966V12.0041C2.51225 10.7616 3.08475 9.62412 4.0735 8.87537L12.2422 2.31912C14.041 0.894124 16.5472 0.894124 18.3422 2.31662L26.5697 8.87912C27.536 9.61537 28.1085 10.7504 28.1247 11.9779V22.8966C28.1247 25.7829 25.7572 28.1316 22.846 28.1316Z" fill="#FF675F"/>
</g>
</svg>
