<svg width="18" height="18" viewBox="0 0 18 18" fill="none" xmlns="http://www.w3.org/2000/svg">
<path d="M5.58398 1.6256C5.23936 1.85536 5.14623 2.321 5.37598 2.66564L8.09766 6.74962L5.47852 10.6783C5.17005 10.5702 4.84382 10.4996 4.5 10.4996C2.85203 10.4996 1.5 11.8517 1.5 13.4996C1.5 15.1476 2.85203 16.4996 4.5 16.4996C6.14797 16.4996 7.5 15.1476 7.5 13.4996C7.5 12.7361 7.20196 12.0433 6.72656 11.5118L9 8.10167L11.2734 11.5118C10.798 12.0433 10.5 12.7361 10.5 13.4996C10.5 15.1476 11.852 16.4996 13.5 16.4996C15.148 16.4996 16.5 15.1476 16.5 13.4996C16.5 11.8517 15.148 10.4996 13.5 10.4996C13.1562 10.4996 12.83 10.5702 12.5215 10.6783L9.90235 6.74962L12.624 2.66564C12.8538 2.321 12.7606 1.85536 12.416 1.6256C12.0262 1.40053 11.5666 1.50335 11.376 1.83361L9 5.39757L6.62402 1.83361C6.34436 1.44998 5.93872 1.42198 5.58398 1.6256ZM4.5 11.9996C5.33731 11.9996 6 12.6623 6 13.4996C6 14.3369 5.33731 14.9996 4.5 14.9996C3.66269 14.9996 3 14.3369 3 13.4996C3 12.6623 3.66269 11.9996 4.5 11.9996ZM13.5 11.9996C14.3373 11.9996 15 12.6623 15 13.4996C15 14.3369 14.3373 14.9996 13.5 14.9996C12.6627 14.9996 12 14.3369 12 13.4996C12 12.6623 12.6627 11.9996 13.5 11.9996Z" fill="#FF675F"/>
</svg>
